HIERARCHY
ROOT hip
{
	OFFSET 0.000000 0.000000 0.000000 
	CHANNELS 6 Xposition Yposition Zposition Xrotation Zrotation Yrotation
	JOINT abdomen
	{
		OFFSET 0.000000 3.402643 0.000000 
		CHANNELS 3 Xrotation Zrotation Yrotation
		JOINT chest
		{
			OFFSET 0.000000 8.438565 -0.680529 
			CHANNELS 3 Xrotation Zrotation Yrotation
			JOINT neck
			{
				OFFSET 0.000000 10.207942 -0.272212 
				CHANNELS 3 Xrotation Zrotation Yrotation
				JOINT head
				{
					OFFSET 0.000000 3.130431 0.000000 
					CHANNELS 3 Xrotation Zrotation Yrotation
					End Site
					{
						OFFSET 0.000000 3.130435 0.000000 
					}
				}
			}
			JOINT lCollar
			{
				OFFSET 3.470700 6.669187 -0.816635 
				CHANNELS 3 Yrotation Zrotation Xrotation
				JOINT lShldr
				{
					OFFSET 3.198488 0.000000 0.000000 
					CHANNELS 3 Zrotation Yrotation Xrotation
					JOINT lForeArm
					{
						OFFSET 10.139888 0.000000 0.000000 
						CHANNELS 3 Yrotation Zrotation Xrotation
						JOINT lHand
						{
							OFFSET 8.370511 0.000000 0.000000 
							CHANNELS 3 Zrotation Yrotation Xrotation
							End Site
							{
								OFFSET 4.083176 0.000000 0.000000 
							}
						}
					}
				}
			}
			JOINT rCollar
			{
				OFFSET -3.470700 6.669187 -0.816635 
				CHANNELS 3 Yrotation Zrotation Xrotation
				JOINT rShldr
				{
					OFFSET -3.198488 0.000000 0.000000 
					CHANNELS 3 Zrotation Yrotation Xrotation
					JOINT rForeArm
					{
						OFFSET -10.139888 0.000000 0.000000 
						CHANNELS 3 Yrotation Zrotation Xrotation
						JOINT rHand
						{
							OFFSET -8.370511 0.000000 0.000000 
							CHANNELS 3 Zrotation Yrotation Xrotation
							End Site
							{
								OFFSET -4.083176 0.000000 0.000000 
							}
						}
					}
				}
			}
		}
	}
	JOINT lThigh
	{
		OFFSET 5.308129 -1.633274 1.361059 
		CHANNELS 3 Xrotation Zrotation Yrotation
		JOINT lShin
		{
			OFFSET -2.041588 -20.007561 0.000000 
			CHANNELS 3 Xrotation Zrotation Yrotation
			JOINT lFoot
			{
				OFFSET 0.000000 -19.190928 -1.224953 
				CHANNELS 3 Xrotation Yrotation Zrotation
				End Site
				{
					OFFSET 0.000000 -2.449906 4.627600 
				}
			}
		}
	}
	JOINT rThigh
	{
		OFFSET -5.308129 -1.633274 1.361059 
		CHANNELS 3 Xrotation Zrotation Yrotation
		JOINT rShin
		{
			OFFSET 2.041588 -20.007561 0.000000 
			CHANNELS 3 Xrotation Zrotation Yrotation
			JOINT rFoot
			{
				OFFSET 0.000000 -19.190928 -1.224953 
				CHANNELS 3 Xrotation Yrotation Zrotation
				End Site
				{
					OFFSET 0.000000 -2.449906 4.627600 
				}
			}
		}
	}
}
MOTION
Frames: 17
Frame Time: 0.033333
2.060361 50.596504 5.058584 0.187651 1.932459 -1.963750 0.000000 0.000000 0.000000 -4.309728 -1.386341 1.338208 6.376254 -1.005656 1.152509 7.560310 -0.908168 0.507749 0.367748 8.401026 -3.317362 -2.739456 -4.533314 -12.777311 0.046924 -10.044918 20.554258 2.247832 -10.844258 -3.571637 0.821191 -10.514625 -3.374401 4.722837 -3.405756 -6.225401 -0.089985 5.934284 12.663561 -2.156980 7.600227 -3.547753 7.115166 9.411204 9.169028 0.272035 -3.225384 11.160313 -3.908447 0.364650 -10.066060 5.728326 -18.119438 -16.085381 -1.190538 4.776268 0.619871 -0.403950 -0.054290 12.303885 
2.077468 50.596134 5.048170 0.136820 2.000789 -1.953979 0.000000 0.000000 0.000000 -4.262022 -1.444924 1.328441 6.424474 -1.044714 1.142744 7.522852 -0.771457 0.478472 0.391228 8.399619 -3.278715 -2.477436 -4.533583 -12.950722 0.043571 -9.854205 20.642509 2.320391 -11.074817 -3.581748 0.851912 -10.613228 -3.335957 4.592844 -3.455981 -6.396325 -0.089903 5.840740 12.965682 -2.110161 7.798709 -3.548197 7.156559 9.315216 9.107129 0.233775 -3.204096 11.133384 -3.887445 0.345663 -10.052151 5.836544 -18.198580 -16.185434 -1.366662 4.798543 0.527126 -0.250209 -0.002355 12.327767 
2.085651 50.600410 5.043561 0.096412 2.030057 -1.964080 0.000000 0.000000 0.000000 -4.224426 -1.454658 1.377253 6.422334 -1.132580 1.162268 7.681977 -0.537097 0.380843 0.403844 8.379292 -3.238642 -2.207263 -4.612233 -12.973566 0.027428 -9.839325 20.640738 2.313565 -11.124138 -3.581280 0.823115 -10.727982 -3.297593 4.508572 -3.473131 -6.284128 -0.089944 5.949479 12.438176 -2.047591 7.724036 -3.546443 7.196156 9.277382 9.092732 0.204191 -3.211277 11.174544 -3.862010 0.344410 -10.051892 5.829800 -18.251646 -16.170931 -1.229797 4.767889 0.665810 -0.342866 -0.041702 12.358415 
2.094957 50.604439 5.035397 0.049942 1.991053 -1.934462 0.000000 0.000000 0.000000 -4.195625 -1.454646 1.396778 6.474638 -0.986135 1.132813 7.630286 -0.820287 0.449173 0.364044 8.616208 -3.211144 -2.250893 -4.616765 -13.048785 0.040673 -9.862511 20.426126 2.508388 -11.112730 -3.599796 0.833066 -10.620456 -3.276605 4.352540 -3.501770 -6.392618 -0.096216 5.968519 12.457602 -1.916080 7.673409 -3.527886 7.223385 9.294277 9.105574 0.214814 -3.182827 11.173472 -3.864893 0.333234 -10.056649 5.859361 -18.232395 -16.201180 -1.180776 4.800889 0.698036 -0.368248 -0.042936 12.348540 
2.099486 50.602295 5.030913 0.004731 1.913005 -1.905191 0.000000 0.000000 0.000000 -4.175379 -1.396052 1.426072 6.434810 -0.966584 1.201330 7.767925 -0.703103 0.449185 0.306584 8.717113 -3.182198 -2.161972 -4.605034 -13.211479 0.040129 -9.895183 20.111958 1.930681 -11.127205 -3.536018 0.838987 -10.581172 -3.257412 4.294146 -3.552676 -6.460382 -0.109916 5.975922 12.478064 -2.014605 7.491059 -3.545826 7.232434 9.381007 9.166872 0.281971 -3.226681 11.091334 -3.888427 0.349196 -10.019015 5.944831 -18.131390 -16.187441 -1.328219 4.790596 0.588232 -0.240370 -0.039201 12.344850 
2.102756 50.603176 5.021523 0.053898 1.932558 -1.875909 0.000000 0.000000 0.000000 -4.224445 -1.396046 1.435835 6.360845 -1.132517 1.308724 7.996086 -0.302728 0.371089 0.302467 8.658840 -3.240117 -2.113110 -4.624552 -13.408879 0.040416 -9.770041 20.440664 1.751961 -11.108457 -3.511094 0.820566 -10.708764 -3.316784 4.390693 -3.597875 -6.509355 -0.107711 5.956815 12.497488 -1.946397 7.505027 -3.537165 7.172431 9.350862 9.142321 0.281858 -3.227147 11.052295 -3.888033 0.344664 -10.010343 5.884424 -18.148508 -16.154259 -1.318840 4.782182 0.559981 -0.239494 -0.048241 12.341379 
2.098483 50.609093 5.012473 0.032815 1.854336 -2.002800 0.000000 0.000000 0.000000 -4.233151 -1.317923 1.474893 6.378400 -1.142239 1.396596 8.083351 -0.361319 0.410148 0.309617 8.638848 -3.230461 -2.076927 -4.527167 -13.260564 0.037445 -9.815892 20.323528 1.788816 -10.900812 -3.514524 0.853240 -10.818228 -3.318550 4.536303 -3.537143 -6.583735 -0.113721 5.931900 12.800578 -1.804971 7.611485 -3.520308 7.211441 9.428626 9.222607 0.271941 -3.245886 11.082461 -3.888348 0.378682 -10.006742 5.924031 -18.051760 -16.086102 -1.494389 4.762375 0.566122 -0.139088 0.019954 12.342123 
2.103136 50.610340 4.997835 -0.021212 1.883464 -2.130002 0.000000 0.000000 0.000000 -4.206017 -1.356942 1.523704 6.466177 -1.093392 1.464950 8.032608 -0.507793 0.507793 0.320826 8.716413 -3.211156 -2.122205 -4.406156 -12.873312 0.036455 -9.960132 20.134275 1.977988 -10.928699 -3.540918 0.942131 -10.763537 -3.278268 4.588362 -3.494066 -6.554758 -0.104654 5.956870 12.467338 -1.803005 7.738765 -3.523268 7.293579 9.373945 9.216062 0.253062 -3.233940 11.181244 -3.870059 0.379615 -10.026988 5.903146 -18.078535 -16.067896 -1.433477 4.735081 0.748116 -0.162531 -0.021495 12.358785 
2.105144 50.602180 4.995397 -0.031018 1.893235 -2.120242 0.000000 0.000000 0.000000 -4.216090 -1.386241 1.504175 6.419729 -1.034840 1.416137 8.128816 -0.634738 0.537076 0.380823 8.713106 -3.220803 -2.271791 -4.425818 -12.960398 0.028640 -9.802737 20.727339 1.894758 -11.031562 -3.528238 0.890199 -10.585053 -3.295739 4.544503 -3.449367 -6.558571 -0.099213 5.918679 12.496479 -1.785753 7.778943 -3.521531 7.280638 9.370569 9.225756 0.292083 -3.234921 11.256722 -3.880092 0.339018 -10.022960 5.907570 -18.095367 -16.099268 -1.444775 4.760241 0.678248 -0.118918 -0.021114 12.346713 
2.103117 50.606075 4.969519 -0.057604 1.854246 -2.080884 0.000000 0.000000 0.000000 -4.186083 -1.386259 1.474887 6.421482 -1.005577 1.357556 8.197038 -0.673801 0.517542 0.345983 8.695411 -3.191846 -2.390896 -4.449648 -12.892963 0.040788 -9.880844 20.387648 1.873525 -11.169791 -3.525536 0.903032 -10.457850 -3.265170 4.587962 -3.506245 -6.389582 -0.097237 5.968503 12.467314 -1.823428 7.590797 -3.522432 7.262577 9.440540 9.264320 0.310909 -3.276505 11.109463 -3.866028 0.343323 -9.999665 5.906105 -18.073740 -16.126501 -1.435561 4.791488 0.608925 -0.079743 -0.012591 12.337917 
2.085895 50.607590 4.937621 -0.108788 1.766561 -1.944242 0.000000 0.000000 0.000000 -4.133262 -1.337515 1.357736 6.530056 -1.015372 1.279442 8.069997 -0.683566 0.517541 0.358280 8.645768 -3.161407 -2.675957 -4.556041 -13.043257 0.040756 -9.806708 20.363682 1.952439 -11.028285 -3.528001 0.888913 -10.348207 -3.213671 4.731040 -3.547780 -6.549378 -0.094964 5.899611 12.495474 -1.756582 7.467713 -3.510527 7.243632 9.568376 9.340405 0.448211 -3.282208 10.787805 -3.939322 0.328794 -10.007930 5.983726 -17.926842 -16.055834 -1.455066 4.751324 0.482524 -0.082793 -0.008364 12.297934 
2.085903 50.606075 4.938682 -0.091630 1.893506 -1.885672 0.000000 0.000000 0.000000 -4.202936 -1.444936 1.308916 6.509879 -1.103269 1.211089 8.119720 -0.595680 0.507785 0.282627 8.337137 -3.227570 -2.700380 -4.508475 -12.996196 0.047865 -9.750173 20.833405 1.998985 -11.103493 -3.548750 0.837994 -10.337308 -3.284462 5.065593 -3.556155 -6.964474 -0.110269 5.757593 12.561588 -1.821613 7.561563 -3.521736 7.192529 9.429324 9.222303 0.329766 -3.279172 10.932466 -3.810221 0.326979 -9.983582 5.945898 -18.083872 -16.131540 -1.336757 4.746903 0.560282 -0.162986 -0.036633 12.342710 
2.095457 50.603291 4.928987 -0.135837 2.049671 -1.885655 0.000000 0.000000 0.000000 -4.215826 -1.581618 1.308904 6.421741 -1.152103 1.172031 8.598422 -0.585915 0.498021 0.164530 8.177397 -3.216499 -2.797955 -4.406947 -12.635039 0.031940 -9.881716 20.515768 1.832399 -11.309222 -3.520759 0.798419 -10.344856 -3.284504 5.478834 -3.544025 -7.003458 -0.106874 5.721324 12.707321 -2.161249 7.668425 -3.551071 7.244456 9.267049 9.141669 0.252407 -3.275562 10.976754 -3.767113 0.332241 -9.937844 5.945842 -18.289080 -16.257183 -1.259727 4.800292 0.652779 -0.191058 0.000991 12.316238 
2.091922 50.596901 4.912474 -0.126042 2.059443 -1.875894 0.000000 0.000000 0.000000 -4.224550 -1.620714 1.240567 6.405666 -1.113100 1.035340 8.742000 -0.869104 0.527283 0.213859 8.135612 -3.235834 -3.011932 -4.368414 -12.243214 0.034025 -9.984242 20.669554 2.039116 -11.453418 -3.555103 0.732940 -10.263130 -3.292443 5.785112 -3.435354 -6.937213 -0.108938 5.761513 12.738401 -1.997193 7.707566 -3.539357 7.221137 9.282189 9.163670 0.242488 -3.305597 10.880167 -3.755486 0.322613 -9.952011 5.914561 -18.286243 -16.264071 -1.259535 4.789708 0.633565 -0.168413 0.007804 12.307451 
2.079718 50.603806 4.881689 -0.185407 2.030105 -1.924696 0.000000 0.000000 0.000000 -4.175169 -1.620726 1.221043 6.485174 -1.181492 0.908211 8.753840 -0.869120 0.390580 0.226126 8.105427 -3.197161 -3.129359 -4.259027 -12.028468 0.021378 -10.087497 20.260786 2.106811 -11.293024 -3.555201 0.798465 -10.157836 -3.233012 6.129419 -3.534414 -6.932340 -0.110379 5.784397 12.405167 -1.776520 7.789288 -3.520431 7.270028 9.331403 9.190772 0.204012 -3.303846 10.843744 -3.706295 0.333438 -9.935534 5.914977 -18.247139 -16.239124 -1.259788 4.790750 0.671764 -0.112416 0.009880 12.295495 
2.067892 50.603680 4.859209 -0.048060 1.981269 -1.953983 0.000000 0.000000 0.000000 -4.272409 -1.601199 1.221045 6.435055 -1.210772 0.947467 8.606410 -0.937475 0.419866 0.293749 8.043249 -3.285540 -3.293992 -4.163865 -12.289121 0.028065 -9.940926 20.606979 1.816184 -11.368895 -3.518099 0.782738 -9.992754 -3.319564 6.252063 -3.642146 -6.707817 -0.122339 5.874172 12.524677 -1.298747 7.866920 -3.465826 7.115335 9.420868 9.229705 0.242313 -3.345315 10.831845 -3.684104 0.317896 -9.930674 5.719523 -18.187969 -16.152479 -1.218163 4.812420 0.714096 -0.128414 0.012363 12.255380 
2.062608 50.604057 4.847015 -0.145385 1.961739 -1.963746 0.000000 0.000000 0.000000 -4.213727 -1.571897 1.240571 6.434160 -1.191223 1.006048 8.797300 -1.249949 0.517668 0.342821 7.971913 -3.245482 -3.505181 -4.136744 -12.367521 0.031504 -9.835945 20.611973 1.863590 -11.170392 -3.523644 0.832044 -9.965031 -3.269750 6.510401 -3.811471 -6.891740 -0.124770 5.778378 12.757854 -1.195877 7.432613 -3.466165 7.203425 9.420873 9.260817 0.242187 -3.336017 10.792686 -3.705483 0.320050 -9.909305 5.834921 -18.205265 -16.246080 -1.220278 4.905909 0.838298 -0.137465 0.020649 12.175362 
